<?xml version="1.0" encoding="UTF-8"?>
<!DOCTYPE svg PUBLIC "-//W3C//DTD SVG 1.1//EN" "http://www.w3.org/Graphics/SVG/1.1/DTD/svg11.dtd">
<svg xmlns="http://www.w3.org/2000/svg" version="1.1" width="1618px" height="199px" style="shape-rendering:geometricPrecision; text-rendering:geometricPrecision; image-rendering:optimizeQuality; fill-rule:evenodd; clip-rule:evenodd" xmlns:xlink="http://www.w3.org/1999/xlink">
<g><path style="opacity:0.971" fill="#eff0f2" d="M 230.5,-0.5 C 241.5,-0.5 252.5,-0.5 263.5,-0.5C 287.887,10.4972 298.054,29.4972 294,56.5C 286.773,79.0161 271.106,91.3495 247,93.5C 228.181,92.2733 214.014,83.7733 204.5,68C 199.263,55.6136 198.096,42.7803 201,29.5C 206.349,14.9852 216.182,4.98524 230.5,-0.5 Z"/></g>
<g><path style="opacity:0.965" fill="#eff0f2" d="M 137.5,14.5 C 171.317,18.1516 185.817,36.8183 181,70.5C 173.96,90.2314 159.96,100.565 139,101.5C 122.226,100.537 109.393,93.0367 100.5,79C 92.104,60.2076 94.4373,43.0409 107.5,27.5C 116.13,19.8522 126.13,15.5189 137.5,14.5 Z"/></g>
<g><path style="opacity:0.938" fill="#fefefe" d="M 333.5,27.5 C 345.171,27.3335 356.838,27.5001 368.5,28C 408.03,76.8579 447.53,125.691 487,174.5C 487.5,125.501 487.667,76.5011 487.5,27.5C 531.835,27.3333 576.168,27.5 620.5,28C 621.833,36 621.833,44 620.5,52C 585.502,52.5 550.502,52.6667 515.5,52.5C 515.5,64.8333 515.5,77.1667 515.5,89.5C 543.833,89.5 572.167,89.5 600.5,89.5C 600.5,98.5 600.5,107.5 600.5,116.5C 572.167,116.5 543.833,116.5 515.5,116.5C 515.5,128.833 515.5,141.167 515.5,153.5C 550.506,153.167 585.506,153.5 620.5,154.5C 621.469,162.444 621.802,170.444 621.5,178.5C 565.499,178.667 509.499,178.5 453.5,178C 423.417,139.248 392.584,101.081 361,63.5C 360.5,101.832 360.333,140.165 360.5,178.5C 351.5,178.5 342.5,178.5 333.5,178.5C 333.5,128.167 333.5,77.8333 333.5,27.5 Z"/></g>
<g><path style="opacity:0.922" fill="#fefefe" d="M 650.5,28.5 C 663.006,27.175 675.673,27.175 688.5,28.5C 702.523,45.6891 716.357,63.0225 730,80.5C 744.167,63 758.333,45.5 772.5,28C 784.833,27.3333 797.167,27.3333 809.5,28C 789.526,53.4413 769.193,78.6079 748.5,103.5C 768.879,127.877 788.879,152.544 808.5,177.5C 796.18,178.666 783.847,178.833 771.5,178C 731.041,128.238 690.708,78.4046 650.5,28.5 Z"/></g>
<g><path style="opacity:0.949" fill="#fefefe" d="M 835.5,27.5 C 879.833,27.5 924.167,27.5 968.5,27.5C 968.5,35.8333 968.5,44.1667 968.5,52.5C 951.5,52.5 934.5,52.5 917.5,52.5C 917.5,94.5 917.5,136.5 917.5,178.5C 908.167,178.5 898.833,178.5 889.5,178.5C 889.5,136.5 889.5,94.5 889.5,52.5C 871.5,52.5 853.5,52.5 835.5,52.5C 835.5,44.1667 835.5,35.8333 835.5,27.5 Z"/></g>
<g><path style="opacity:0.957" fill="#eff0f2" d="M 1042.5,27.5 C 1062.15,25.6592 1079.82,30.4925 1095.5,42C 1091.6,49.6298 1087.6,57.1298 1083.5,64.5C 1073.42,57.9627 1062.42,53.9627 1050.5,52.5C 1043.76,52.6114 1038.93,55.6114 1036,61.5C 1035.33,62.8333 1035.33,64.1667 1036,65.5C 1037.6,68.2192 1039.76,70.3859 1042.5,72C 1054.01,76.7266 1065.68,81.0599 1077.5,85C 1094.14,92.1202 1100.98,104.62 1098,122.5C 1093.57,139.924 1082.4,150.091 1064.5,153C 1041.9,155.887 1021.57,150.553 1003.5,137C 1006.86,128.993 1011.03,121.493 1016,114.5C 1020.4,116.616 1024.57,119.116 1028.5,122C 1033.49,123.663 1038.49,125.33 1043.5,127C 1050.95,129.221 1058.28,128.888 1065.5,126C 1071.03,119.907 1070.7,114.074 1064.5,108.5C 1055.04,104.772 1045.37,101.605 1035.5,99C 1009.32,90.1355 1001.48,72.9688 1012,47.5C 1019.45,36.5331 1029.61,29.8665 1042.5,27.5 Z"/></g>
<g><path style="opacity:0.967" fill="#eff0f2" d="M 1140.5,198.5 C 1130.5,198.5 1120.5,198.5 1110.5,198.5C 1110.5,142.5 1110.5,86.5 1110.5,30.5C 1120.5,30.5 1130.5,30.5 1140.5,30.5C 1140.17,35.8746 1140.51,41.2079 1141.5,46.5C 1154.86,30.4351 1171.86,24.6017 1192.5,29C 1222.77,38.6628 1237.43,59.4961 1236.5,91.5C 1237.55,111.197 1230.88,127.697 1216.5,141C 1197.25,155.983 1176.59,158.316 1154.5,148C 1150,144.167 1145.5,140.333 1141,136.5C 1140.5,157.164 1140.33,177.831 1140.5,198.5 Z M 1168.5,53.5 C 1192.33,54.4942 1205.33,66.9942 1207.5,91C 1206.87,103.229 1202.21,113.562 1193.5,122C 1178.08,131.424 1163.58,130.257 1150,118.5C 1137.26,102.214 1136.26,85.2139 1147,67.5C 1152.79,60.5051 1159.96,55.8384 1168.5,53.5 Z"/></g>
<g><path style="opacity:0.968" fill="#eff0f2" d="M 1298.5,27.5 C 1317.32,26.1526 1332.49,32.8193 1344,47.5C 1344.5,41.8431 1344.67,36.1764 1344.5,30.5C 1354.17,30.5 1363.83,30.5 1373.5,30.5C 1373.5,70.8333 1373.5,111.167 1373.5,151.5C 1363.83,151.5 1354.17,151.5 1344.5,151.5C 1344.67,146.156 1344.5,140.823 1344,135.5C 1326.95,154.157 1306.45,158.991 1282.5,150C 1275.45,146.28 1268.95,141.78 1263,136.5C 1243.61,108.208 1242.61,79.2083 1260,49.5C 1270.36,37.5771 1283.19,30.2438 1298.5,27.5 Z M 1306.5,53.5 C 1334.83,55.6824 1347.33,71.0157 1344,99.5C 1340.42,117.476 1329.42,127.143 1311,128.5C 1289.53,125.529 1278.36,113.195 1277.5,91.5C 1277.12,76.7573 1283.12,65.5906 1295.5,58C 1299.05,55.8792 1302.72,54.3792 1306.5,53.5 Z"/></g>
<g><path style="opacity:0.953" fill="#eff0f2" d="M 1441.5,27.5 C 1463.99,25.3759 1482.66,32.5426 1497.5,49C 1493.09,56.7439 1487.26,63.2439 1480,68.5C 1474.28,63.7203 1468.12,59.5536 1461.5,56C 1437.47,50.4359 1422.3,59.6025 1416,83.5C 1413.97,94.3292 1415.97,104.329 1422,113.5C 1435.91,130.051 1452.41,132.885 1471.5,122C 1474.98,119.354 1478.31,116.521 1481.5,113.5C 1487.15,118.652 1492.65,123.985 1498,129.5C 1498.67,130.5 1498.67,131.5 1498,132.5C 1479.49,152.422 1456.99,158.922 1430.5,152C 1398.26,140.075 1383.43,116.908 1386,82.5C 1392.49,51.8402 1410.99,33.5069 1441.5,27.5 Z"/></g>
<g><path style="opacity:0.957" fill="#eff0f2" d="M 1617.5,75.5 C 1617.5,84.5 1617.5,93.5 1617.5,102.5C 1588.5,102.5 1559.5,102.5 1530.5,102.5C 1532.18,115.353 1539.18,123.853 1551.5,128C 1564.59,131.613 1576.93,129.613 1588.5,122C 1590.93,120.039 1593.43,118.206 1596,116.5C 1602.51,120.677 1608.34,125.677 1613.5,131.5C 1592.31,153.963 1566.98,160.13 1537.5,150C 1516.73,140.886 1504.57,125.052 1501,102.5C 1497.39,72.9016 1507.89,50.0683 1532.5,34C 1552.49,24.8654 1572.15,25.532 1591.5,36C 1605.33,45.8383 1614,59.005 1617.5,75.5 Z M 1553.5,52.5 C 1566.8,50.537 1576.97,55.2037 1584,66.5C 1586.44,71.483 1588.27,76.6497 1589.5,82C 1569.5,82.6667 1549.5,82.6667 1529.5,82C 1531.49,67.1892 1539.49,57.3559 1553.5,52.5 Z"/></g>
<g><path style="opacity:0.96" fill="#eff0f2" d="M 34.5,30.5 C 58.9751,29.485 74.1418,40.8183 80,64.5C 81.4489,86.3073 71.9489,100.641 51.5,107.5C 27.9068,112.291 11.7402,103.625 3,81.5C -1.22163,54.9738 9.27837,37.9738 34.5,30.5 Z"/></g>
<g><path style="opacity:0.964" fill="#eff0f2" d="M 242.5,100.5 C 270.64,100.475 289.14,113.808 298,140.5C 299.499,152.128 299.832,163.794 299,175.5C 298.626,176.416 298.126,177.25 297.5,178C 264.167,178.667 230.833,178.667 197.5,178C 196.584,177.626 195.75,177.126 195,176.5C 194.168,165.485 194.334,154.485 195.5,143.5C 201.5,118.421 217.167,104.087 242.5,100.5 Z"/></g>
<g><path style="opacity:0.956" fill="#eff0f2" d="M 128.5,108.5 C 159.838,105.397 179.005,119.064 186,149.5C 186.817,158.745 186.65,167.911 185.5,177C 170.089,178.152 154.589,178.652 139,178.5C 124.167,178.333 109.333,178.167 94.5,178C 93.5838,177.626 92.7504,177.126 92,176.5C 88.8286,158.491 91.9953,141.825 101.5,126.5C 108.901,118.098 117.901,112.098 128.5,108.5 Z"/></g>
<g><path style="opacity:0.907" fill="#fefefe" d="M 703.5,113.5 C 709.857,120.525 715.857,127.858 721.5,135.5C 711.106,150.07 700.106,164.237 688.5,178C 676.153,178.833 663.82,178.666 651.5,177.5C 668.852,156.097 686.186,134.763 703.5,113.5 Z"/></g>
<g><path style="opacity:0.964" fill="#eff0f2" d="M -0.5,177.5 C -0.5,167.5 -0.5,157.5 -0.5,147.5C 7.69868,122.548 25.032,112.048 51.5,116C 67.4023,120.989 77.5689,131.489 82,147.5C 82.9059,153.701 83.7392,159.868 84.5,166C 84.5288,170.319 83.5288,174.319 81.5,178C 54.0946,178.824 26.7613,178.657 -0.5,177.5 Z"/></g>
</svg>
